<svg width="50" height="50" viewBox="0 0 50 50" fill="none" xmlns="http://www.w3.org/2000/svg">
<path d="M36.176 19.4514L40.5151 21.7987L41.4235 22.3091C43.3588 23.3964 43.3588 26.1996 41.4235 27.2869L29.0988 34.2113C26.2404 35.8172 22.7596 35.8172 19.9012 34.2113L7.57647 27.2869C5.64117 26.1996 5.64118 23.3964 7.57648 22.3091L8.48486 21.7987L12.5835 19.4514M37.1197 29.9023L41.0639 31.8878C43.098 32.9117 43.1633 35.8103 41.1774 36.926L29.0988 43.7121C26.2404 45.3181 22.7596 45.3181 19.9012 43.7121L7.99884 37.025C5.97881 35.8901 6.09011 32.9274 8.18952 31.9494L12.5835 29.9023M29.0988 24.1144L41.4235 17.19C43.3588 16.1026 43.3588 13.2994 41.4235 12.2121L29.0988 5.28769C26.2404 3.68177 22.7596 3.68177 19.9012 5.28769L7.57648 12.2121C5.64118 13.2994 5.64117 16.1026 7.57647 17.1899L19.9012 24.1144C22.7596 25.7203 26.2404 25.7203 29.0988 24.1144Z" stroke="#4F77FF" stroke-width="3.0625"/>
</svg>
