<svg width="50" height="50" viewBox="0 0 50 50" fill="none" xmlns="http://www.w3.org/2000/svg">
<path d="M38.1323 26.6852L36.9867 25.6227L38.1323 26.6852ZM23.4009 11.9538L24.4634 13.0994L23.4009 11.9538ZM45.1268 8.90067L46.6761 9.1033L45.1268 8.90067ZM41.1854 4.9593L41.3881 6.5086L41.3881 6.5086L41.1854 4.9593ZM13.5299 26.3554L14.9328 27.0432L14.9328 27.0432L13.5299 26.3554ZM23.7307 36.5563L23.0429 35.1533L23.0429 35.1533L23.7307 36.5563ZM17.1401 21.1609C16.5299 20.5507 15.5406 20.5507 14.9304 21.1609C14.3202 21.771 14.3202 22.7604 14.9304 23.3706L17.1401 21.1609ZM26.7155 35.1557C27.3257 35.7659 28.3151 35.7659 28.9253 35.1557C29.5354 34.5455 29.5354 33.5562 28.9253 32.946L26.7155 35.1557ZM13.4573 38.8385C14.0675 38.2283 14.0675 37.239 13.4573 36.6288C12.8471 36.0186 11.8578 36.0186 11.2476 36.6288L13.4573 38.8385ZM5.35503 42.5214C4.74483 43.1316 4.74483 44.1209 5.35503 44.7311C5.96522 45.3413 6.95454 45.3413 7.56474 44.7311L5.35503 42.5214ZM9.03788 34.4191C9.64807 33.8089 9.64807 32.8196 9.03788 32.2094C8.42768 31.5992 7.43836 31.5992 6.82817 32.2094L9.03788 34.4191ZM3.88189 35.1557C3.2717 35.7659 3.2717 36.7552 3.88189 37.3654C4.49208 37.9756 5.4814 37.9756 6.0916 37.3654L3.88189 35.1557ZM17.8767 43.2579C18.4869 42.6477 18.4869 41.6584 17.8767 41.0482C17.2665 40.438 16.2772 40.438 15.667 41.0482L17.8767 43.2579ZM12.7207 43.9945C12.1105 44.6047 12.1105 45.594 12.7207 46.2042C13.3309 46.8144 14.3202 46.8144 14.9304 46.2042L12.7207 43.9945ZM22.0752 43.9208L23.622 43.6999L23.622 43.6999L22.0752 43.9208ZM32.8291 36.7025L34.3759 36.4815L34.3759 36.4815L32.8291 36.7025ZM6.16521 28.011L6.38618 26.4642L6.38618 26.4642L6.16521 28.011ZM13.3836 17.2571L13.1626 18.8039L13.1626 18.8039L13.3836 17.2571ZM19.2081 35.7506L20.3129 34.6458L15.4403 29.7732L14.3355 30.878L13.2306 31.9829L18.1032 36.8555L19.2081 35.7506ZM38.1323 26.6852L36.9867 25.6227C33.0416 29.8763 26.636 33.3918 23.0429 35.1533L23.7307 36.5563L24.4185 37.9592C28.044 36.1818 34.9099 32.4574 39.2779 27.7477L38.1323 26.6852ZM13.5299 26.3554L14.9328 27.0432C16.6944 23.4501 20.2098 17.0445 24.4634 13.0994L23.4009 11.9538L22.3384 10.8082C17.6288 15.1762 13.9043 22.0422 12.1269 25.6676L13.5299 26.3554ZM45.1268 8.90067L43.5775 8.69804C42.9445 13.5383 41.2625 21.0124 36.9867 25.6227L38.1323 26.6852L39.2779 27.7477C44.2686 22.3668 46.0334 14.0179 46.6761 9.1033L45.1268 8.90067ZM23.4009 11.9538L24.4634 13.0994C29.0737 8.82357 36.5478 7.14165 41.3881 6.5086L41.1854 4.9593L40.9828 3.40999C36.0682 4.05276 27.7193 5.81756 22.3384 10.8082L23.4009 11.9538ZM45.1268 8.90067L46.6761 9.1033C47.1159 5.74106 44.3451 2.97025 40.9828 3.40999L41.1854 4.9593L41.3881 6.5086C42.7151 6.33505 43.7511 7.37104 43.5775 8.69804L45.1268 8.90067ZM14.3355 30.878L15.4403 29.7732C14.6837 29.0165 14.4988 27.9285 14.9328 27.0432L13.5299 26.3554L12.1269 25.6676C11.0682 27.8272 11.5894 30.3416 13.2306 31.9829L14.3355 30.878ZM19.2081 35.7506L18.1032 36.8555C19.7445 38.4967 22.2589 39.018 24.4185 37.9592L23.7307 36.5563L23.0429 35.1533C22.1576 35.5873 21.0696 35.4024 20.3129 34.6458L19.2081 35.7506ZM16.0353 22.2657L14.9304 23.3706L26.7155 35.1557L27.8204 34.0508L28.9253 32.946L17.1401 21.1609L16.0353 22.2657ZM12.3524 37.7337L11.2476 36.6288L5.35503 42.5214L6.45988 43.6262L7.56474 44.7311L13.4573 38.8385L12.3524 37.7337ZM7.93302 33.3142L6.82817 32.2094L3.88189 35.1557L4.98674 36.2605L6.0916 37.3654L9.03788 34.4191L7.93302 33.3142ZM16.7719 42.1531L15.667 41.0482L12.7207 43.9945L13.8256 45.0994L14.9304 46.2042L17.8767 43.2579L16.7719 42.1531ZM28.557 15.6366L27.4521 14.5317C25.2147 16.7691 25.2147 20.3966 27.4521 22.634L28.557 21.5291L29.6618 20.4243C28.6448 19.4073 28.6448 17.7584 29.6618 16.7414L28.557 15.6366ZM28.557 21.5291L27.4521 22.634C29.6895 24.8714 33.317 24.8714 35.5544 22.634L34.4495 21.5291L33.3447 20.4243C32.3277 21.4413 30.6788 21.4413 29.6618 20.4243L28.557 21.5291ZM34.4495 21.5291L35.5544 22.634C37.7918 20.3966 37.7918 16.7691 35.5544 14.5317L34.4495 15.6366L33.3447 16.7414C34.3617 17.7584 34.3617 19.4073 33.3447 20.4243L34.4495 21.5291ZM34.4495 15.6366L35.5544 14.5317C33.317 12.2943 29.6895 12.2943 27.4521 14.5317L28.557 15.6366L29.6618 16.7414C30.6788 15.7244 32.3277 15.7244 33.3447 16.7414L34.4495 15.6366ZM32.2398 38.4702L31.135 37.3654L24.5058 43.9945L25.6107 45.0994L26.7155 46.2042L33.3447 39.5751L32.2398 38.4702ZM22.0752 43.9208L23.622 43.6999L22.7381 37.5127L21.1913 37.7337L19.6445 37.9546L20.5284 44.1418L22.0752 43.9208ZM32.2398 32.5777L30.693 32.7987L31.2823 36.9234L32.8291 36.7025L34.3759 36.4815L33.7866 32.3567L32.2398 32.5777ZM25.6107 45.0994L24.5058 43.9945C24.2024 44.298 23.6827 44.1248 23.622 43.6999L22.0752 43.9208L20.5284 44.1418C20.9532 47.116 24.5912 48.3286 26.7155 46.2042L25.6107 45.0994ZM32.2398 38.4702L33.3447 39.5751C34.1561 38.7636 34.5382 37.6175 34.3759 36.4815L32.8291 36.7025L31.2823 36.9234C31.3055 37.0857 31.2509 37.2495 31.135 37.3654L32.2398 38.4702ZM11.6158 17.8463L10.511 16.7415L3.88184 23.3706L4.9867 24.4755L6.09155 25.5803L12.7207 18.9512L11.6158 17.8463ZM6.16521 28.011L5.94424 29.5578L12.1314 30.4417L12.3524 28.8949L12.5734 27.3481L6.38618 26.4642L6.16521 28.011ZM17.5084 17.8463L17.7294 16.2995L13.6046 15.7103L13.3836 17.2571L13.1626 18.8039L17.2874 19.3931L17.5084 17.8463ZM4.9867 24.4755L3.88184 23.3706C1.75746 25.495 2.9701 29.1329 5.94424 29.5578L6.16521 28.011L6.38618 26.4642C5.9613 26.4035 5.78807 25.8838 6.09155 25.5803L4.9867 24.4755ZM11.6158 17.8463L12.7207 18.9512C12.8366 18.8353 13.0003 18.7807 13.1626 18.8039L13.3836 17.2571L13.6046 15.7103C12.4685 15.548 11.3224 15.93 10.511 16.7415L11.6158 17.8463Z" fill="#4F77FF"/>
</svg>
